<?xml version="1.0" standalone="no"?>
<!DOCTYPE svg PUBLIC "-//W3C//DTD SVG 20010904//EN"
 "http://www.w3.org/TR/2001/REC-SVG-20010904/DTD/svg10.dtd">
<svg version="1.0" xmlns="http://www.w3.org/2000/svg"
 width="415.000000pt" height="415.000000pt" viewBox="0 0 415.000000 415.000000"
 preserveAspectRatio="xMidYMid meet">
<metadata>
Created by potrace 1.11, written by Peter Selinger 2001-2013
</metadata>
<g transform="translate(0.000000,415.000000) scale(0.100000,-0.100000)"
fill="#000000" stroke="none">
<path d="M2400 3514 c-352 -67 -770 -297 -1176 -645 -161 -139 -444 -425 -569
-577 -390 -472 -615 -924 -615 -1232 0 -192 58 -293 202 -351 74 -31 237 -31
358 0 278 71 651 275 966 529 l112 90 48 -23 c92 -43 239 -58 329 -34 59 16
155 60 155 72 0 10 -51 127 -55 127 -2 0 -33 -14 -69 -31 -54 -25 -80 -31
-139 -32 -40 0 -89 5 -110 12 l-39 13 139 137 c436 431 757 900 883 1292 59
183 66 366 19 469 -37 79 -71 115 -145 151 -59 29 -75 33 -167 35 -56 1 -113
0 -127 -2z m216 -207 c109 -56 73 -328 -84 -642 -67 -135 -203 -347 -327 -509
-14 -19 -16 -18 -73 7 -223 100 -478 25 -596 -176 -81 -136 -87 -342 -15 -482
l21 -40 -33 -28 c-79 -66 -264 -202 -373 -271 -377 -241 -745 -353 -856 -259
-67 56 -67 194 -1 391 193 578 843 1331 1510 1751 352 221 693 328 827 258z
m-583 -1263 c26 -9 49 -20 52 -24 10 -16 -397 -444 -421 -442 -17 1 -32 77
-33 157 -1 84 19 145 70 214 70 94 214 135 332 95z"/>
<path d="M2515 2045 c-30 -29 -32 -68 -5 -95 62 -62 166 -8 138 71 -19 54 -91
67 -133 24z"/>
<path d="M3010 1930 l0 -120 -45 0 -45 0 0 -59 c0 -57 1 -58 28 -59 68 0 62
19 62 -212 l0 -210 70 0 70 0 2 212 3 213 68 -1 67 -2 0 59 0 59 -70 0 -70 0
0 120 0 120 -70 0 -70 0 0 -120z"/>
<path d="M2500 1540 l0 -270 70 0 70 0 0 270 0 270 -70 0 -70 0 0 -270z"/>
<path d="M3470 1806 c0 -2 54 -116 121 -253 139 -286 135 -245 51 -431 l-51
-113 72 3 72 3 172 395 c95 217 173 396 173 398 0 2 -30 2 -67 0 l-67 -3 -75
-167 c-41 -93 -77 -168 -81 -168 -4 0 -41 75 -82 168 l-75 167 -81 3 c-45 2
-82 1 -82 -2z"/>
</g>
</svg>
